<?xml version="1.0" encoding="UTF-8"?>
<svg width="11px" height="20px" viewBox="0 0 11 20" version="1.1" xmlns="http://www.w3.org/2000/svg" xmlns:xlink="http://www.w3.org/1999/xlink">
    <!-- Generator: Sketch 57.1 (83088) - https://sketch.com -->
    <title>Fill 3</title>
    <desc>Created with Sketch.</desc>
    <g id="Symbols" stroke="none" stroke-width="1" fill="none" fill-rule="evenodd">
        <g id="iconos-/-RRSS" transform="translate(-158.000000, -2.000000)" fill="#F6F6F6">
            <g id="RRSS">
                <path d="M158.493817,13.4015116 C159.186677,13.3843169 159.882792,13.4329206 160.572862,13.385234 C161.127848,13.3467179 161.254329,13.5636002 161.238287,14.0643094 C161.205969,15.0707715 161.232474,16.0788386 161.227824,17.0862178 C161.220384,18.760063 161.209224,20.3261548 161.198994,22 L165.24711,22 L165.24711,13.3815658 L168.41613,13.3815658 C168.58702,12.0584921 168.750703,10.7938804 168.922988,9.46048999 C167.781164,9.46048999 166.762334,9.4476513 165.744434,9.46736787 C165.371266,9.474475 165.221534,9.36534608 165.235484,8.98087294 C165.26013,8.29812934 165.233159,7.61378091 165.245482,6.93034953 C165.261525,6.05754737 165.724206,5.60635885 166.602604,5.59581278 C167.241058,5.58824712 167.879978,5.58113998 168.518199,5.59787614 C168.865559,5.60681738 169.006224,5.49287394 168.998319,5.13361967 C168.978556,4.25256405 168.975301,3.37013286 168.999481,2.48930651 C169.010176,2.0997896 168.856027,1.99364108 168.487276,2.00028969 C167.52076,2.01771364 166.553081,1.98836804 165.586564,2.01037724 C163.497289,2.05806383 161.776997,3.39122501 161.350353,5.40185674 C161.181323,6.1990023 161.254562,7.04727339 161.231312,7.87261823 C161.216896,8.38731244 161.228754,8.90269444 161.228754,9.46186557 C160.26154,9.46186557 159.370355,9.47126533 158.479634,9.45728032 C158.125997,9.45177802 157.996027,9.58452098 158.001375,9.93345844 C158.016488,10.9406084 158.019278,11.9484462 158.000212,12.9555961 C157.993237,13.3286061 158.158082,13.4097651 158.493817,13.4015116" id="Fill-3"></path>
            </g>
        </g>
    </g>
</svg>