<?xml version="1.0" encoding="UTF-8"?>
<svg width="18px" height="17px" viewBox="0 0 18 17" version="1.1" xmlns="http://www.w3.org/2000/svg" xmlns:xlink="http://www.w3.org/1999/xlink">
    <!-- Generator: Sketch 57.1 (83088) - https://sketch.com -->
    <title>Group 21</title>
    <desc>Created with Sketch.</desc>
    <g id="Symbols" stroke="none" stroke-width="1" fill="none" fill-rule="evenodd">
        <g id="iconos-/-RRSS" fill="#F6F6F6">
            <g id="RRSS">
                <g id="Group-21">
                    <path d="M7.00202404,16.4741646 C7.00112878,16.8443033 7.14347608,17.0029644 7.54298855,16.9957525 C8.35790447,16.9813288 9.17371565,16.9747533 9.98818393,16.9989342 C10.4653607,17.013358 10.6551571,16.8850291 10.6453092,16.3901676 C10.6124082,14.7426795 10.6256134,13.094343 10.6383709,11.4464307 C10.6410567,11.0896553 10.6824627,10.7267285 10.7630367,10.3784376 C10.9691717,9.48692324 11.6710603,8.9999099 12.6625674,9.0228182 C13.6043873,9.04466592 14.1021552,9.47674177 14.2664365,10.4427081 C14.3235097,10.7791206 14.3613347,11.1221087 14.3633491,11.4623393 C14.373197,13.144614 14.3770019,14.8268887 14.3613347,16.5091634 C14.3579775,16.8691206 14.4929388,16.9995706 14.8620123,16.994692 C15.7131865,16.9830257 16.5652559,16.9751775 17.4157587,16.9982979 C17.8821923,17.0108126 18.0055152,16.8131225 17.9990245,16.4090457 C17.9820144,15.3279015 18.0171536,14.2456968 17.9878337,13.1647648 C17.9509039,11.8129634 17.943518,10.4545865 17.7875179,9.11317868 C17.6344274,7.79807299 16.9813308,6.694869 15.5513671,6.28082282 C13.6809325,5.73929624 11.936059,5.89329087 10.5116908,7.52380982 C10.5116908,7.23257754 10.4937854,7.05949266 10.515048,6.89086217 C10.5770452,6.40300038 10.3789676,6.21400697 9.8467319,6.24030908 C9.10612306,6.27700477 8.36126171,6.26682331 7.61930998,6.24306656 C7.18667267,6.22927916 6.99844298,6.355699 7,6.79222925 C7.01164815,10.019541 7.00963381,13.2468528 7.00202404,16.4741646" id="Fill-4"></path>
                    <path d="M3.34548291,6.00089963 C2.42701439,6.0262748 1.50656907,6.02497351 0.588100549,6.00155027 C0.124542047,5.98983865 0.00148653847,6.17505573 0.0019807373,6.5368146 C0.00741692442,9.85207009 0.00889952091,13.1671087 0,16.4825811 C-0.000984455674,16.8729684 0.183845906,17.0043987 0.612563391,16.996591 C1.53152611,16.980108 2.45172433,16.972734 3.36994576,16.9991936 C3.88490094,17.0139415 4.00449705,16.8267725 3.99881377,16.40754 C3.97583352,14.7763718 3.98942399,13.1449868 3.98942399,11.5136017 C3.98917689,9.86486612 3.97360963,8.21569677 3.99980216,6.56717806 C4.00672095,6.12235345 3.83301006,5.98745295 3.34548291,6.00089963" id="Fill-6"></path>
                    <path d="M1.98086207,4 C3.04581369,4.00596104 3.97223153,3.1026533 3.9994665,2.03160673 C4.02627257,0.981313568 3.03873689,-0.0129240228 1.98171987,0.00012708398 C0.918912737,0.0129642382 0.000858394089,0.941304438 0,2.00357895 C-0.000857194499,3.06735112 0.91848384,3.9939797 1.98086207,4" id="Fill-8"></path>
                </g>
            </g>
        </g>
    </g>
</svg>