<?xml version="1.0" encoding="UTF-8"?>
<svg width="20px" height="17px" viewBox="0 0 20 17" version="1.1" xmlns="http://www.w3.org/2000/svg" xmlns:xlink="http://www.w3.org/1999/xlink">
    <!-- Generator: Sketch 57.1 (83088) - https://sketch.com -->
    <title>Fill 7</title>
    <desc>Created with Sketch.</desc>
    <g id="Symbols" stroke="none" stroke-width="1" fill="none" fill-rule="evenodd">
        <g id="iconos-/-RRSS" transform="translate(-104.000000, -1.000000)" fill="#F6F6F6">
            <g id="RRSS">
                <path d="M115.107102,16.2130205 C115.112822,16.2130205 115.118323,16.2130205 115.124043,16.2127916 C115.125143,16.2297329 115.126023,16.2466743 115.127123,16.2633867 C115.119203,16.2631577 115.111062,16.2629288 115.102922,16.2626999 C115.104462,16.2462164 115.105782,16.229504 115.107102,16.2130205 M115.107102,15.9650817 C115.112822,15.9650817 115.118323,15.9648528 115.124043,15.9648528 C115.125143,15.9817941 115.126023,15.9985065 115.127123,16.0154479 C115.119203,16.0152189 115.111062,16.01499 115.102922,16.0147611 C115.104462,15.9980486 115.105782,15.9815652 115.107102,15.9650817 M104.090865,16.1759327 C104.547611,16.4705747 105.021517,16.731334 105.512585,16.9579817 C106.832439,17.5671832 108.214116,17.9151675 109.655637,17.9831618 C110.294773,18.0131525 110.936108,18.0067423 111.575244,17.9339403 C112.108994,17.8728141 112.638124,17.7874206 113.160433,17.6573844 C115.397078,17.0994648 117.294685,15.938754 118.844231,14.1715889 C120.199287,12.6260349 121.111018,10.8272766 121.621447,8.8066782 C121.801637,8.09331036 121.918463,7.36849568 121.968406,6.63223414 C121.997228,6.20709805 122.015489,5.78173302 121.991067,5.35591012 C121.985787,5.26227487 122.008448,5.20435379 122.083253,5.1468906 C122.810393,4.58897102 123.430608,3.92161953 123.948517,3.15170425 C123.967878,3.12285818 123.99582,3.09630148 124,3.0482247 C123.260759,3.37514681 122.503696,3.59217912 121.710992,3.67711477 C121.734973,3.64529252 121.763795,3.62400137 121.793276,3.60385491 C122.56838,3.07684184 123.120831,2.36461869 123.441829,1.45963055 C123.453489,1.42620574 123.46251,1.39186519 123.479451,1.33600455 C123.424668,1.36691105 123.392326,1.38431026 123.360864,1.40262523 C122.610182,1.84195542 121.814398,2.1558281 120.97153,2.34080924 C120.896946,2.35706377 120.855364,2.33371219 120.805641,2.28357497 C119.71042,1.17918267 118.409487,0.77327729 116.923964,1.12103266 C114.801505,1.61782605 113.405747,3.79776459 113.81585,6.08026693 C113.82663,6.14047737 113.834991,6.20114569 113.846871,6.27669491 C113.020065,6.23823349 112.22098,6.10979981 111.435976,5.89070705 C108.985699,5.20664316 106.960926,3.83004471 105.328654,1.79914419 C104.981915,2.43238405 104.793584,3.09996448 104.784124,3.81356125 C104.763663,5.36987528 105.392898,6.58919398 106.590645,7.51112346 C106.268107,7.51066558 105.95679,7.45915475 105.650312,7.37307442 C105.340535,7.28607834 105.046379,7.15627104 104.747162,6.99624404 C104.748702,7.7313609 104.89963,8.40764093 105.227669,9.03515737 C105.839963,10.2066282 106.784476,10.927551 108.028426,11.2411947 C108.000704,11.2595097 107.974083,11.2716434 107.946581,11.2785115 C107.408651,11.4135843 106.866541,11.4417436 106.31959,11.3481083 C106.285928,11.3423849 106.251386,11.3430717 106.205404,11.3398666 C106.31695,11.694719 106.463698,12.0101943 106.646748,12.3080414 C106.828478,12.6035991 107.04189,12.8716844 107.286324,13.1132129 C107.533178,13.3570309 107.805553,13.5651347 108.10191,13.7395847 C108.394966,13.9122032 108.704743,14.0431552 109.029262,14.1370194 C109.35444,14.2313415 109.687539,14.2743816 110.027458,14.3052881 C109.496788,14.7556073 108.919475,15.1170989 108.298821,15.4032702 C106.928584,16.0351365 105.496524,16.2594948 104,16.1148065 C104.030142,16.1351819 104.060063,16.1562441 104.090865,16.1759327 Z" id="Fill-7"></path>
            </g>
        </g>
    </g>
</svg>